<svg version="1.1" id="Capa_1" xmlns="http://www.w3.org/2000/svg" xmlns:xlink="http://www.w3.org/1999/xlink" x="0px" y="0px"
	 viewBox="0 0 512 512" style="enable-background:new 0 0 512 512;" xml:space="preserve">
<g transform="translate(10,80)">
    <path style="fill:#ffffff;" d="M157.375,292.967c-3.474,0-6.921-0.547-10.187-1.678c-8.463-2.934-13.871-9.302-14.841-17.473
    	c-1.317-11.103,5.306-29.586,44.334-54.589c11.285-7.229,22.837-12.976,34.413-17.492c1.162-2.198,2.351-4.438,3.558-6.711
    	c8.945-16.848,19.331-36.411,27.596-55.402c-15.258-30.061-21.671-58.182-21.671-66.936c0-15.46,8.68-27.819,20.639-29.387
    	c4.811-0.632,21.117-0.425,28.887,28.714c4.785,17.942-1.38,41.91-11.673,66.958c2.814,5.151,5.964,10.429,9.479,15.702
    	c7.666,11.499,16.328,22.537,25.247,32.441c37.765,0.227,67.003,9.163,74.427,13.943c10.572,6.809,14.857,18.342,10.662,28.7
    	c-5.549,13.703-20.603,15.948-31.812,13.707c-16.191-3.238-34.248-17.427-46.544-28.758c-4.367-4.024-8.712-8.328-12.978-12.842
    	c-18.743,0.422-41.758,3.244-65.516,11.696c-1.971,3.754-3.836,7.355-5.553,10.76c-2.391,5.244-21.103,45.772-33.678,58.348
    	C175.52,289.313,166.357,292.967,157.375,292.967z M200.593,222.43c-5.368,2.695-10.724,5.722-16.02,9.116
    	c-37.601,24.088-38,38.004-37.699,40.549c0.296,2.493,2.014,4.302,5.105,5.373c5.426,1.88,13.981,0.718,19.841-5.141
    	C180.051,264.094,193.9,236.627,200.593,222.43z M308.038,202.364c15.452,14.531,30.458,24.596,41.264,26.756
    	c9.163,1.835,14.013-1.469,15.385-4.854c1.497-3.698-0.474-7.981-5.025-10.91C355.383,210.602,335.446,204.274,308.038,202.364z
    	 M251.13,155.566c-6.247,13.416-13.238,26.834-19.949,39.513c14.801-4.077,29.376-6.35,43.204-7.348
    	c-6.683-8.035-12.988-16.454-18.647-24.943C254.142,160.395,252.605,157.983,251.13,155.566z M243.624,57.773
    	c-0.172,0-0.342,0.01-0.508,0.032c-3.806,0.498-7.911,6.33-7.911,14.881c0,3.494,2.029,14.9,7.474,30.631
    	c1.746,5.042,4.037,11.087,6.957,17.737c6.246-17.614,9.422-33.685,6.332-45.271C252.619,63.225,247.458,57.773,243.624,57.773z"/>
</g>
</svg>